<svg width="48" height="48" viewBox="0 0 48 48" fill="none" xmlns="http://www.w3.org/2000/svg">
<path d="M7.5 28.5H12.5V43C12.5 44.3807 11.3807 45.5 10 45.5C8.61929 45.5 7.5 44.3807 7.5 43V28.5Z" stroke="#152C5B" stroke-width="3"/>
<path d="M34.5 28.5H39.5V43C39.5 44.3807 38.3807 45.5 37 45.5C35.6193 45.5 34.5 44.3807 34.5 43V28.5Z" stroke="#152C5B" stroke-width="3"/>
<path d="M5.22126 21.9812C5.62333 21.0802 6.51764 20.5 7.50423 20.5H40.0642C41.0141 20.5 41.8819 21.0383 42.3039 21.8894L43.7915 24.8894C44.6155 26.5511 43.4066 28.5 41.5518 28.5H6.16538C4.35458 28.5 3.14444 26.6348 3.88241 24.9812L5.22126 21.9812Z" stroke="#152C5B" stroke-width="3"/>
<line x1="15.5" y1="15.5" x2="15.5" y2="19.5" stroke="#152C5B" stroke-width="3" stroke-linecap="round"/>
<path d="M13.5 9.5H17.5V12.2143C17.5 13.3189 16.6046 14.2143 15.5 14.2143C14.3954 14.2143 13.5 13.3189 13.5 12.2143V9.5Z" stroke="#FF498B" stroke-width="3"/>
<line x1="31.5" y1="14.5" x2="31.5" y2="19.5" stroke="#152C5B" stroke-width="3" stroke-linecap="round"/>
<path d="M29.5 9.5H33.5V12.2143C33.5 13.3189 32.6046 14.2143 31.5 14.2143C30.3954 14.2143 29.5 13.3189 29.5 12.2143V9.5Z" stroke="#FF498B" stroke-width="3"/>
</svg>
