<svg width="48" height="48" viewBox="0 0 48 48" fill="none" xmlns="http://www.w3.org/2000/svg">
<path d="M41.5 21.5V7.97817C41.5 7.36099 41.2151 6.77838 40.7279 6.39946L38.2279 4.45502C37.5057 3.89329 36.4943 3.89329 35.7721 4.45502L32.5 7" stroke="#FF498B" stroke-width="3" stroke-linecap="round"/>
<path d="M1.5 25C1.5 23.6193 2.61929 22.5 4 22.5H44C45.3807 22.5 46.5 23.6193 46.5 25V27C46.5 28.3807 45.3807 29.5 44 29.5H4C2.61929 29.5 1.5 28.3807 1.5 27V25Z" stroke="#152C5B" stroke-width="3"/>
<path d="M5.5 29.5H42.5V39C42.5 40.933 40.933 42.5 39 42.5H9C7.067 42.5 5.5 40.933 5.5 39V29.5Z" stroke="#152C5B" stroke-width="3"/>
<line x1="11.5" y1="42.5" x2="11.5" y2="45.5" stroke="#152C5B" stroke-width="3" stroke-linecap="round"/>
<line x1="36.5" y1="42.5" x2="36.5" y2="45.5" stroke="#152C5B" stroke-width="3" stroke-linecap="round"/>
</svg>
