<svg width="48" height="48" viewBox="0 0 48 48" fill="none" xmlns="http://www.w3.org/2000/svg">
<path d="M13 27C15.5874 23.9509 19.5536 22 24 22C28.4464 22 32.4126 23.9509 35 27" stroke="#152C5B" stroke-width="3" stroke-linecap="round"/>
<path d="M8 20C11.871 16.3411 17.3477 13 24 13C30.6523 13 36.129 16.3411 40 20" stroke="#152C5B" stroke-width="3" stroke-linecap="round"/>
<path d="M4 13C8.8137 9.12591 15.7276 4 24 4C32.2724 4 39.1863 9.12591 44 13" stroke="#152C5B" stroke-width="3" stroke-linecap="round"/>
<path d="M30.5 36.5C30.5 39.724 27.6825 42.5 24 42.5C20.3175 42.5 17.5 39.724 17.5 36.5C17.5 33.276 20.3175 30.5 24 30.5C27.6825 30.5 30.5 33.276 30.5 36.5Z" stroke="#FF498B" stroke-width="3"/>
</svg>
