<svg width="48" height="48" viewBox="0 0 48 48" fill="none" xmlns="http://www.w3.org/2000/svg">
<path d="M30.5 40.5C30.5 41.6457 29.4516 43.1445 26.6771 44.4451C24.0221 45.6896 20.2488 46.5 16 46.5C11.7512 46.5 7.97793 45.6896 5.32294 44.4451C2.54839 43.1445 1.5 41.6457 1.5 40.5C1.5 39.3543 2.54839 37.8555 5.32294 36.5549C7.97793 35.3104 11.7512 34.5 16 34.5C20.2488 34.5 24.0221 35.3104 26.6771 36.5549C29.4516 37.8555 30.5 39.3543 30.5 40.5Z" stroke="#152C5B" stroke-width="3"/>
<path d="M28.5 13.3953C28.5 16.8256 27.005 23.5208 24.5185 29.3865C23.281 32.3056 21.8407 34.9145 20.2971 36.7669C18.7188 38.6608 17.2598 39.5 16 39.5C14.7402 39.5 13.2811 38.6608 11.7029 36.7669C10.1593 34.9145 8.71901 32.3056 7.48154 29.3865C4.99497 23.5208 3.5 16.8256 3.5 13.3953C3.5 6.88745 9.03334 1.5 16 1.5C22.9667 1.5 28.5 6.88745 28.5 13.3953Z" fill="white" stroke="#152C5B" stroke-width="3"/>
<circle cx="16" cy="14" r="4.5" stroke="#FF498B" stroke-width="3"/>
</svg>
